# MagicaVoxel @ Ephtracy

# group
o 

# material
mtllib house.mtl
usemtl palette

# normals
vn -1 0 0
vn 1 0 0
vn 0 0 1
vn 0 0 -1
vn 0 -1 0
vn 0 1 0

# texcoords
vt 0.970703 0.5
vt 0.978516 0.5
vt 0.986328 0.5

# verts
v 0 3.9 0
v 0 3.9 -4
v 0 4.1 0
v 0 4.1 -4
v 0.3 4 -1.4
v 0.3 4 -1.7
v 0.3 4.1 -1.4
v 0.3 4.1 -1.7
v 0.4 3.9 -0.1
v 0.4 3.9 -0.3
v 0.4 4 -0.1
v 0.4 4 -0.3
v 0.4 4 -0.5
v 0.4 4.1 -0.1
v 0.4 4.1 -0.5
v 0.5 4 -0.5
v 0.5 4 -0.9
v 0.5 4 -1
v 0.5 4 -1.1
v 0.5 4 -1.5
v 0.5 4 -1.7
v 0.5 4.1 -0.5
v 0.5 4.1 -0.9
v 0.5 4.1 -1
v 0.5 4.1 -1.1
v 0.5 4.1 -1.5
v 0.5 4.1 -1.7
v 0.6 4 -0.1
v 0.6 4 -0.4
v 0.6 4.1 -0.1
v 0.6 4.1 -0.4
v 0.7 4 -0.4
v 0.7 4 -0.7
v 0.7 4 -0.8
v 0.7 4 -1
v 0.7 4 -1.3
v 0.7 4 -1.5
v 0.7 4.1 -0.4
v 0.7 4.1 -0.7
v 0.7 4.1 -0.8
v 0.7 4.1 -1
v 0.7 4.1 -1.3
v 0.7 4.1 -1.5
v 3.9 4 -0.1
v 3.9 4 -0.3
v 3.9 4 -3.9
v 3.9 4.1 -0.1
v 3.9 4.1 -3.9
v 0.2 3.9 -0.1
v 0.2 3.9 -0.3
v 0.2 4 -0.3
v 0.2 4 -0.7
v 0.2 4 -0.8
v 0.2 4 -1
v 0.2 4 -1.1
v 0.2 4 -1.2
v 0.2 4 -1.3
v 0.2 4 -3.9
v 0.2 4.1 -0.1
v 0.2 4.1 -0.7
v 0.2 4.1 -0.8
v 0.2 4.1 -1
v 0.2 4.1 -1.1
v 0.2 4.1 -1.2
v 0.2 4.1 -1.3
v 0.2 4.1 -3.9
v 0.4 4 -0.7
v 0.4 4 -0.8
v 0.4 4 -1
v 0.4 4 -1.1
v 0.4 4 -1.5
v 0.4 4 -1.7
v 0.4 4.1 -0.7
v 0.4 4.1 -0.8
v 0.4 4.1 -1
v 0.4 4.1 -1.1
v 0.4 4.1 -1.5
v 0.4 4.1 -1.7
v 0.5 4 -0.1
v 0.5 4 -0.5
v 0.5 4.1 -0.1
v 0.5 4.1 -0.5
v 0.6 4 -0.5
v 0.6 4 -0.9
v 0.6 4 -1.4
v 0.6 4 -1.7
v 0.6 4.1 -0.5
v 0.6 4.1 -0.9
v 0.6 4.1 -1.4
v 0.6 4.1 -1.7
v 0.7 4 -0.1
v 0.7 4 -0.4
v 0.7 4.1 -0.1
v 0.7 4.1 -0.4
v 0.8 4 -0.4
v 0.8 4 -0.7
v 0.8 4 -0.8
v 0.8 4 -1.1
v 0.8 4 -1.2
v 0.8 4 -1.5
v 0.8 4.1 -0.4
v 0.8 4.1 -0.7
v 0.8 4.1 -0.8
v 0.8 4.1 -1.1
v 0.8 4.1 -1.2
v 0.8 4.1 -1.5
v 4 3.9 0
v 4 3.9 -4
v 4 4.1 0
v 4 4.1 -4
v 0 3.9 0
v 0 4.1 0
v 4 3.9 0
v 4 4.1 0
v 0.2 3.9 -0.3
v 0.2 4 -0.3
v 0.4 3.9 -0.3
v 0.4 4 -0.3
v 0.7 4 -0.4
v 0.7 4.1 -0.4
v 0.8 4 -0.4
v 0.8 4.1 -0.4
v 0.5 4 -0.5
v 0.5 4.1 -0.5
v 0.6 4 -0.5
v 0.6 4.1 -0.5
v 0.2 4 -0.7
v 0.2 4.1 -0.7
v 0.4 4 -0.7
v 0.4 4.1 -0.7
v 0.7 4 -0.8
v 0.7 4.1 -0.8
v 0.8 4 -0.8
v 0.8 4.1 -0.8
v 0.2 4 -1
v 0.2 4.1 -1
v 0.4 4 -1
v 0.4 4.1 -1
v 0.5 4 -1
v 0.5 4.1 -1
v 0.7 4 -1
v 0.7 4.1 -1
v 0.2 4 -1.2
v 0.2 4.1 -1.2
v 0.8 4 -1.2
v 0.8 4.1 -1.2
v 0.3 4 -1.4
v 0.3 4.1 -1.4
v 0.6 4 -1.4
v 0.6 4.1 -1.4
v 0.2 4 -3.9
v 0.2 4.1 -3.9
v 3.9 4 -3.9
v 3.9 4.1 -3.9
v 0.2 3.9 -0.1
v 0.2 4.1 -0.1
v 0.4 3.9 -0.1
v 0.4 4 -0.1
v 0.4 4.1 -0.1
v 0.5 4 -0.1
v 0.5 4.1 -0.1
v 0.6 4 -0.1
v 0.6 4.1 -0.1
v 0.7 4 -0.1
v 0.7 4.1 -0.1
v 3.7 4 -0.1
v 3.9 4 -0.1
v 3.9 4.1 -0.1
v 0.6 4 -0.4
v 0.6 4.1 -0.4
v 0.7 4 -0.4
v 0.7 4.1 -0.4
v 0.4 4 -0.5
v 0.4 4.1 -0.5
v 0.5 4 -0.5
v 0.5 4.1 -0.5
v 0.7 4 -0.7
v 0.7 4.1 -0.7
v 0.8 4 -0.7
v 0.8 4.1 -0.7
v 0.2 4 -0.8
v 0.2 4.1 -0.8
v 0.4 4 -0.8
v 0.4 4.1 -0.8
v 0.5 4 -0.9
v 0.5 4.1 -0.9
v 0.6 4 -0.9
v 0.6 4.1 -0.9
v 0.2 4 -1.1
v 0.2 4.1 -1.1
v 0.4 4 -1.1
v 0.4 4.1 -1.1
v 0.5 4 -1.1
v 0.5 4.1 -1.1
v 0.8 4 -1.1
v 0.8 4.1 -1.1
v 0.2 4 -1.3
v 0.2 4.1 -1.3
v 0.7 4 -1.3
v 0.7 4.1 -1.3
v 0.4 4 -1.5
v 0.4 4.1 -1.5
v 0.5 4 -1.5
v 0.5 4.1 -1.5
v 0.7 4 -1.5
v 0.7 4.1 -1.5
v 0.8 4 -1.5
v 0.8 4.1 -1.5
v 0.3 4 -1.7
v 0.3 4.1 -1.7
v 0.4 4 -1.7
v 0.4 4.1 -1.7
v 0.5 4 -1.7
v 0.5 4.1 -1.7
v 0.6 4 -1.7
v 0.6 4.1 -1.7
v 0 3.9 -4
v 0 4.1 -4
v 4 3.9 -4
v 4 4.1 -4
v 0 3.9 0
v 4 3.9 0
v 0.2 3.9 -0.1
v 0.4 3.9 -0.1
v 3.7 3.9 -0.1
v 3.9 3.9 -0.1
v 0.2 3.9 -0.3
v 0.4 3.9 -0.3
v 3.7 3.9 -0.3
v 3.9 3.9 -0.3
v 0.2 3.9 -3.9
v 3.9 3.9 -3.9
v 0 3.9 -4
v 4 3.9 -4
v 0.5 4 -0.1
v 0.6 4 -0.1
v 0.7 4 -0.1
v 3.7 4 -0.1
v 3.9 4 -0.1
v 0.2 4 -0.3
v 0.4 4 -0.3
v 3.7 4 -0.3
v 3.9 4 -0.3
v 0.6 4 -0.4
v 0.7 4 -0.4
v 0.8 4 -0.4
v 0.4 4 -0.5
v 0.5 4 -0.5
v 0.6 4 -0.5
v 0.2 4 -0.7
v 0.4 4 -0.7
v 0.7 4 -0.7
v 0.8 4 -0.7
v 0.2 4 -0.8
v 0.4 4 -0.8
v 0.7 4 -0.8
v 0.8 4 -0.8
v 0.5 4 -0.9
v 0.6 4 -0.9
v 0.2 4 -1
v 0.4 4 -1
v 0.5 4 -1
v 0.7 4 -1
v 0.2 4 -1.1
v 0.4 4 -1.1
v 0.5 4 -1.1
v 0.8 4 -1.1
v 0.2 4 -1.2
v 0.8 4 -1.2
v 0.2 4 -1.3
v 0.7 4 -1.3
v 0.3 4 -1.4
v 0.6 4 -1.4
v 0.4 4 -1.5
v 0.5 4 -1.5
v 0.7 4 -1.5
v 0.8 4 -1.5
v 0.3 4 -1.7
v 0.4 4 -1.7
v 0.5 4 -1.7
v 0.6 4 -1.7
v 0.2 4 -3.9
v 3.9 4 -3.9
v 0 4.1 0
v 4 4.1 0
v 0.2 4.1 -0.1
v 0.4 4.1 -0.1
v 0.5 4.1 -0.1
v 0.6 4.1 -0.1
v 0.7 4.1 -0.1
v 3.9 4.1 -0.1
v 0.6 4.1 -0.4
v 0.7 4.1 -0.4
v 0.8 4.1 -0.4
v 0.4 4.1 -0.5
v 0.5 4.1 -0.5
v 0.6 4.1 -0.5
v 0.2 4.1 -0.7
v 0.4 4.1 -0.7
v 0.7 4.1 -0.7
v 0.8 4.1 -0.7
v 0.2 4.1 -0.8
v 0.4 4.1 -0.8
v 0.7 4.1 -0.8
v 0.8 4.1 -0.8
v 0.5 4.1 -0.9
v 0.6 4.1 -0.9
v 0.2 4.1 -1
v 0.4 4.1 -1
v 0.5 4.1 -1
v 0.7 4.1 -1
v 0.2 4.1 -1.1
v 0.4 4.1 -1.1
v 0.5 4.1 -1.1
v 0.8 4.1 -1.1
v 0.2 4.1 -1.2
v 0.8 4.1 -1.2
v 0.2 4.1 -1.3
v 0.7 4.1 -1.3
v 0.3 4.1 -1.4
v 0.6 4.1 -1.4
v 0.4 4.1 -1.5
v 0.5 4.1 -1.5
v 0.7 4.1 -1.5
v 0.8 4.1 -1.5
v 0.3 4.1 -1.7
v 0.4 4.1 -1.7
v 0.5 4.1 -1.7
v 0.6 4.1 -1.7
v 0.2 4.1 -3.9
v 3.9 4.1 -3.9
v 0 4.1 -4
v 4 4.1 -4

# faces
f 3/1/1 2/1/1 1/1/1
f 4/1/1 2/1/1 3/1/1
f 7/1/1 6/1/1 5/1/1
f 8/1/1 6/1/1 7/1/1
f 11/3/1 10/3/1 9/3/1
f 12/3/1 10/3/1 11/3/1
f 14/1/1 12/1/1 11/1/1
f 14/1/1 13/1/1 12/1/1
f 15/1/1 13/1/1 14/1/1
f 22/1/1 17/1/1 16/1/1
f 23/1/1 17/1/1 22/1/1
f 24/1/1 19/1/1 18/1/1
f 25/1/1 19/1/1 24/1/1
f 26/1/1 21/1/1 20/1/1
f 27/1/1 21/1/1 26/1/1
f 30/1/1 29/1/1 28/1/1
f 31/1/1 29/1/1 30/1/1
f 38/1/1 33/1/1 32/1/1
f 39/1/1 33/1/1 38/1/1
f 40/1/1 35/1/1 34/1/1
f 41/1/1 35/1/1 40/1/1
f 42/1/1 37/1/1 36/1/1
f 43/1/1 37/1/1 42/1/1
f 47/1/1 45/1/1 44/1/1
f 47/1/1 46/1/1 45/1/1
f 48/1/1 46/1/1 47/1/1
f 49/1/2 50/1/2 51/1/2
f 49/1/2 51/1/2 59/1/2
f 51/1/2 52/1/2 59/1/2
f 59/1/2 52/1/2 60/1/2
f 53/1/2 54/1/2 61/1/2
f 61/1/2 54/1/2 62/1/2
f 55/1/2 56/1/2 63/1/2
f 63/1/2 56/1/2 64/1/2
f 57/1/2 58/1/2 65/1/2
f 65/1/2 58/1/2 66/1/2
f 67/1/2 68/1/2 73/1/2
f 73/1/2 68/1/2 74/1/2
f 69/1/2 70/1/2 75/1/2
f 75/1/2 70/1/2 76/1/2
f 71/1/2 72/1/2 77/1/2
f 77/1/2 72/1/2 78/1/2
f 79/1/2 80/1/2 81/1/2
f 81/1/2 80/1/2 82/1/2
f 83/1/2 84/1/2 87/1/2
f 87/1/2 84/1/2 88/1/2
f 85/1/2 86/1/2 89/1/2
f 89/1/2 86/1/2 90/1/2
f 91/1/2 92/1/2 93/1/2
f 93/1/2 92/1/2 94/1/2
f 95/1/2 96/1/2 101/1/2
f 101/1/2 96/1/2 102/1/2
f 97/1/2 98/1/2 103/1/2
f 103/1/2 98/1/2 104/1/2
f 99/1/2 100/1/2 105/1/2
f 105/1/2 100/1/2 106/1/2
f 107/1/2 108/1/2 109/1/2
f 109/1/2 108/1/2 110/1/2
f 113/1/3 112/1/3 111/1/3
f 114/1/3 112/1/3 113/1/3
f 117/3/3 116/3/3 115/3/3
f 118/3/3 116/3/3 117/3/3
f 121/1/3 120/1/3 119/1/3
f 122/1/3 120/1/3 121/1/3
f 125/1/3 124/1/3 123/1/3
f 126/1/3 124/1/3 125/1/3
f 129/1/3 128/1/3 127/1/3
f 130/1/3 128/1/3 129/1/3
f 133/1/3 132/1/3 131/1/3
f 134/1/3 132/1/3 133/1/3
f 137/1/3 136/1/3 135/1/3
f 138/1/3 136/1/3 137/1/3
f 141/1/3 140/1/3 139/1/3
f 142/1/3 140/1/3 141/1/3
f 145/1/3 144/1/3 143/1/3
f 146/1/3 144/1/3 145/1/3
f 149/1/3 148/1/3 147/1/3
f 150/1/3 148/1/3 149/1/3
f 153/1/3 152/1/3 151/1/3
f 154/1/3 152/1/3 153/1/3
f 155/1/4 156/1/4 157/1/4
f 157/1/4 156/1/4 158/1/4
f 158/1/4 156/1/4 159/1/4
f 160/1/4 161/1/4 162/1/4
f 162/1/4 161/1/4 163/1/4
f 164/1/4 165/1/4 166/1/4
f 166/1/4 165/1/4 167/1/4
f 167/1/4 165/1/4 168/1/4
f 169/1/4 170/1/4 171/1/4
f 171/1/4 170/1/4 172/1/4
f 173/1/4 174/1/4 175/1/4
f 175/1/4 174/1/4 176/1/4
f 177/1/4 178/1/4 179/1/4
f 179/1/4 178/1/4 180/1/4
f 181/1/4 182/1/4 183/1/4
f 183/1/4 182/1/4 184/1/4
f 185/1/4 186/1/4 187/1/4
f 187/1/4 186/1/4 188/1/4
f 189/1/4 190/1/4 191/1/4
f 191/1/4 190/1/4 192/1/4
f 193/1/4 194/1/4 195/1/4
f 195/1/4 194/1/4 196/1/4
f 197/1/4 198/1/4 199/1/4
f 199/1/4 198/1/4 200/1/4
f 201/1/4 202/1/4 203/1/4
f 203/1/4 202/1/4 204/1/4
f 205/1/4 206/1/4 207/1/4
f 207/1/4 206/1/4 208/1/4
f 209/1/4 210/1/4 211/1/4
f 211/1/4 210/1/4 212/1/4
f 213/1/4 214/1/4 215/1/4
f 215/1/4 214/1/4 216/1/4
f 217/1/4 218/1/4 219/1/4
f 219/1/4 218/1/4 220/1/4
f 223/1/5 222/1/5 221/1/5
f 224/1/5 222/1/5 223/1/5
f 225/1/5 222/1/5 224/1/5
f 226/1/5 222/1/5 225/1/5
f 227/1/5 223/1/5 221/1/5
f 228/3/5 225/3/5 224/3/5
f 229/2/5 226/2/5 225/2/5
f 229/3/5 225/3/5 228/3/5
f 230/1/5 222/1/5 226/1/5
f 230/2/5 226/2/5 229/2/5
f 231/3/5 229/3/5 228/3/5
f 231/3/5 228/3/5 227/3/5
f 231/3/5 230/3/5 229/3/5
f 231/1/5 227/1/5 221/1/5
f 232/1/5 222/1/5 230/1/5
f 232/3/5 230/3/5 231/3/5
f 233/1/5 231/1/5 221/1/5
f 233/1/5 232/1/5 231/1/5
f 234/1/5 222/1/5 232/1/5
f 234/1/5 232/1/5 233/1/5
f 237/3/6 238/3/6 242/3/6
f 238/2/6 239/2/6 242/2/6
f 242/2/6 239/2/6 243/2/6
f 235/3/6 236/3/6 244/3/6
f 237/3/6 242/3/6 245/3/6
f 242/3/6 243/3/6 245/3/6
f 245/3/6 243/3/6 246/3/6
f 240/3/6 241/3/6 247/3/6
f 235/3/6 244/3/6 248/3/6
f 244/3/6 245/3/6 248/3/6
f 248/3/6 245/3/6 249/3/6
f 240/3/6 247/3/6 250/3/6
f 247/3/6 248/3/6 250/3/6
f 250/3/6 248/3/6 251/3/6
f 249/3/6 245/3/6 252/3/6
f 246/3/6 243/3/6 253/3/6
f 251/3/6 248/3/6 255/3/6
f 249/3/6 252/3/6 256/3/6
f 252/3/6 253/3/6 256/3/6
f 253/3/6 243/3/6 257/3/6
f 256/3/6 253/3/6 257/3/6
f 254/3/6 255/3/6 258/3/6
f 255/3/6 248/3/6 258/3/6
f 249/3/6 256/3/6 259/3/6
f 254/3/6 258/3/6 260/3/6
f 258/3/6 259/3/6 260/3/6
f 260/3/6 259/3/6 261/3/6
f 261/3/6 259/3/6 262/3/6
f 259/3/6 256/3/6 263/3/6
f 262/3/6 259/3/6 263/3/6
f 261/3/6 262/3/6 265/3/6
f 265/3/6 262/3/6 266/3/6
f 257/3/6 243/3/6 267/3/6
f 265/3/6 266/3/6 268/3/6
f 266/3/6 267/3/6 268/3/6
f 264/3/6 265/3/6 268/3/6
f 267/3/6 243/3/6 269/3/6
f 268/3/6 267/3/6 269/3/6
f 270/3/6 271/3/6 272/3/6
f 272/3/6 271/3/6 273/3/6
f 273/3/6 271/3/6 276/3/6
f 269/3/6 243/3/6 277/3/6
f 270/3/6 272/3/6 278/3/6
f 274/3/6 275/3/6 279/3/6
f 279/3/6 275/3/6 280/3/6
f 273/3/6 276/3/6 281/3/6
f 276/3/6 277/3/6 281/3/6
f 279/3/6 280/3/6 282/3/6
f 280/3/6 281/3/6 282/3/6
f 278/3/6 279/3/6 282/3/6
f 270/3/6 278/3/6 282/3/6
f 281/3/6 277/3/6 283/3/6
f 282/3/6 281/3/6 283/3/6
f 277/3/6 243/3/6 283/3/6
f 284/1/6 285/1/6 286/1/6
f 286/1/6 285/1/6 287/1/6
f 287/1/6 285/1/6 288/1/6
f 288/1/6 285/1/6 289/1/6
f 289/1/6 285/1/6 290/1/6
f 290/1/6 285/1/6 291/1/6
f 289/1/6 290/1/6 292/1/6
f 292/1/6 290/1/6 293/1/6
f 287/1/6 288/1/6 295/1/6
f 295/1/6 288/1/6 296/1/6
f 284/1/6 286/1/6 298/1/6
f 293/1/6 294/1/6 300/1/6
f 300/1/6 294/1/6 301/1/6
f 298/1/6 299/1/6 302/1/6
f 284/1/6 298/1/6 302/1/6
f 302/1/6 299/1/6 303/1/6
f 296/1/6 297/1/6 306/1/6
f 306/1/6 297/1/6 307/1/6
f 284/1/6 302/1/6 308/1/6
f 304/1/6 305/1/6 311/1/6
f 308/1/6 309/1/6 312/1/6
f 284/1/6 308/1/6 312/1/6
f 312/1/6 309/1/6 313/1/6
f 310/1/6 311/1/6 314/1/6
f 311/1/6 305/1/6 315/1/6
f 314/1/6 311/1/6 315/1/6
f 284/1/6 312/1/6 316/1/6
f 284/1/6 316/1/6 318/1/6
f 316/1/6 317/1/6 318/1/6
f 318/1/6 317/1/6 319/1/6
f 320/1/6 321/1/6 322/1/6
f 322/1/6 321/1/6 323/1/6
f 319/1/6 317/1/6 324/1/6
f 324/1/6 317/1/6 325/1/6
f 320/1/6 322/1/6 326/1/6
f 326/1/6 322/1/6 327/1/6
f 323/1/6 321/1/6 328/1/6
f 328/1/6 321/1/6 329/1/6
f 284/1/6 318/1/6 330/1/6
f 291/1/6 285/1/6 331/1/6
f 284/1/6 330/1/6 332/1/6
f 330/1/6 331/1/6 332/1/6
f 331/1/6 285/1/6 333/1/6
f 332/1/6 331/1/6 333/1/6
